ffmpeg started on 2025-06-06 at 16:22:58
Report written to "D:\Convert\FFMetrics\reports\psnr_report-6.txt"
Log level: 32
Command line:
ffmpeg -hide_banner -nostdin -i "G:\\\xc0\xed\xe8\xec\xe5\\\xce\xed\xe3\xee\xe8\xed\xe3\xe8\\!_36_\xce\xf1\xe5\xed\xfc_2024\\DreamCast\\\xcf\xe5\xf0\xe5\xf0\xee\xe6\xe4\xe5\xed\xe8\xe5 \xe2 \xe0\xf0\xe8\xf1\xf2\xee\xea\xf0\xe0\xf2\xe0 \xf1\xee \xf1\xef\xee\xf1\xee\xe1\xed\xee\xf1\xf2\xfc\xfe \xe0\xed\xe0\xeb\xe8\xe7\xe0\\\xd2\xc2-2\\DC_Tensei_Kizoku_Kantei_Skill_de_Nariagaru_S2_07_Telegram_HEVC.mkv" -i "G:\\\xc0\xed\xe8\xec\xe5\\\xce\xed\xe3\xee\xe8\xed\xe3\xe8\\!_36_\xce\xf1\xe5\xed\xfc_2024\\DreamCast\\\xcf\xe5\xf0\xe5\xf0\xee\xe6\xe4\xe5\xed\xe8\xe5 \xe2 \xe0\xf0\xe8\xf1\xf2\xee\xea\xf0\xe0\xf2\xe0 \xf1\xee \xf1\xef\xee\xf1\xee\xe1\xed\xee\xf1\xf2\xfc\xfe \xe0\xed\xe0\xeb\xe8\xe7\xe0\\\xd2\xc2-2\\DC_Tensei_Kizoku_Kantei_Skill_de_Nariagaru_S2_07_Telegram.mp4" -lavfi "[0:v]settb=AVTB,setpts=PTS-STARTPTS,format=pix_fmts=yuv420p10,fps=24000/1001,scale=1920:1080:flags=bicubic[main];[1:v]settb=AVTB,setpts=PTS-STARTPTS,format=pix_fmts=yuv420p,fps=24000/1001,scale=1920:1080:flags=bicubic[ref];[main][ref]psnr=eof_action=endall:stats_file='D\\:/Convert/FFMetrics/logs/psnr_logfile-6.txt'" -f null -
Input #0, matroska,webm, from 'G:\Аниме\Онгоинги\!_36_Осень_2024\DreamCast\Перерождение в аристократа со способностью анализа\ТВ-2\DC_Tensei_Kizoku_Kantei_Skill_de_Nariagaru_S2_07_Telegram_HEVC.mkv':
  Metadata:
    COMPATIBLE_BRANDS: isomiso2avc1mp41
    MAJOR_BRAND     : isom
    MINOR_VERSION   : 512
    ENCODER         : Lavf61.7.100
  Duration: 00:23:47.46, start: -0.021000, bitrate: 1353 kb/s
  Stream #0:0: Video: hevc (Main 10), yuv420p10le(tv, bt709, progressive), 1920x1080 [SAR 1:1 DAR 16:9], 23.98 fps, 23.98 tbr, 1k tbn (default)
      Metadata:
        HANDLER_NAME    : VideoHandler
        VENDOR_ID       : [0][0][0][0]
        ENCODER         : Lavc61.19.100 libx265
        BPS             : 1156941
        DURATION        : 00:23:46.549708333
        NUMBER_OF_FRAMES: 34203
        NUMBER_OF_BYTES : 206304171
        _STATISTICS_WRITING_APP: mkvpropedit v66.0.0 ('Josie') 64-bit
        _STATISTICS_WRITING_DATE_UTC: 2025-06-02 10:10:18
        _STATISTICS_TAGS: BPS DURATION NUMBER_OF_FRAMES NUMBER_OF_BYTES
  Stream #0:1: Audio: aac (LC), 48000 Hz, stereo, fltp (default)
      Metadata:
        HANDLER_NAME    : SoundHandler
        VENDOR_ID       : [0][0][0][0]
        ENCODER         : Lavc61.19.100 aac
        BPS             : 193619
        DURATION        : 00:23:47.456000000
        NUMBER_OF_FRAMES: 66913
        NUMBER_OF_BYTES : 34547937
        _STATISTICS_WRITING_APP: mkvpropedit v66.0.0 ('Josie') 64-bit
        _STATISTICS_WRITING_DATE_UTC: 2025-06-02 10:10:18
        _STATISTICS_TAGS: BPS DURATION NUMBER_OF_FRAMES NUMBER_OF_BYTES
Input #1, mov,mp4,m4a,3gp,3g2,mj2, from 'G:\Аниме\Онгоинги\!_36_Осень_2024\DreamCast\Перерождение в аристократа со способностью анализа\ТВ-2\DC_Tensei_Kizoku_Kantei_Skill_de_Nariagaru_S2_07_Telegram.mp4':
  Metadata:
    major_brand     : isom
    minor_version   : 512
    compatible_brands: isomiso2avc1mp41
    encoder         : Lavf61.1.100
  Duration: 00:23:47.41, start: 0.000000, bitrate: 3565 kb/s
  Stream #1:0[0x1](und): Video: h264 (High) (avc1 / 0x31637661), yuv420p(tv, bt709, progressive), 1920x1080 [SAR 1:1 DAR 16:9], 3419 kb/s, 23.98 fps, 23.98 tbr, 24k tbn (default)
      Metadata:
        handler_name    : VideoHandler
        vendor_id       : [0][0][0][0]
        encoder         : Lavc61.3.100 h264_qsv
  Stream #1:1[0x2](und): Audio: aac (HE-AACv2) (mp4a / 0x6134706D), 48000 Hz, stereo, fltp, 144 kb/s (default)
      Metadata:
        handler_name    : SoundHandler
        vendor_id       : [0][0][0][0]
Stream mapping:
  Stream #0:0 (hevc) -> settb:default
  Stream #1:0 (h264) -> settb:default
  psnr:default -> Stream #0:0 (wrapped_avframe)
  Stream #0:1 -> #0:1 (aac (native) -> pcm_s16le (native))
Output #0, null, to 'pipe:':
  Metadata:
    COMPATIBLE_BRANDS: isomiso2avc1mp41
    MAJOR_BRAND     : isom
    MINOR_VERSION   : 512
    encoder         : Lavf61.7.100
  Stream #0:0: Video: wrapped_avframe, yuv420p10le(tv, bt709, progressive), 1920x1080 [SAR 1:1 DAR 16:9], q=2-31, 200 kb/s, 23.98 fps, 23.98 tbn
      Metadata:
        encoder         : Lavc61.19.100 wrapped_avframe
  Stream #0:1: Audio: pcm_s16le, 48000 Hz, stereo, s16, 1536 kb/s (default)
      Metadata:
        HANDLER_NAME    : SoundHandler
        VENDOR_ID       : [0][0][0][0]
        _STATISTICS_TAGS: BPS DURATION NUMBER_OF_FRAMES NUMBER_OF_BYTES
        BPS             : 193619
        DURATION        : 00:23:47.456000000
        NUMBER_OF_FRAMES: 66913
        NUMBER_OF_BYTES : 34547937
        _STATISTICS_WRITING_APP: mkvpropedit v66.0.0 ('Josie') 64-bit
        _STATISTICS_WRITING_DATE_UTC: 2025-06-02 10:10:18
        encoder         : Lavc61.19.100 pcm_s16le
frame=  155 fps=0.0 q=-0.0 size=N/A time=00:00:06.46 bitrate=N/A speed=12.6x    frame=  396 fps=383 q=-0.0 size=N/A time=00:00:16.51 bitrate=N/A speed=  16x    frame=  652 fps=423 q=-0.0 size=N/A time=00:00:27.19 bitrate=N/A speed=17.6x    frame=  918 fps=445 q=-0.0 size=N/A time=00:00:38.28 bitrate=N/A speed=18.5x    frame= 1178 fps=458 q=-0.0 size=N/A time=00:00:49.13 bitrate=N/A speed=19.1x    frame= 1441 fps=465 q=-0.0 size=N/A time=00:01:00.10 bitrate=N/A speed=19.4x    frame= 1675 fps=465 q=-0.0 size=N/A time=00:01:09.86 bitrate=N/A speed=19.4x    frame= 1908 fps=462 q=-0.0 size=N/A time=00:01:19.57 bitrate=N/A speed=19.3x    frame= 2135 fps=459 q=-0.0 size=N/A time=00:01:29.04 bitrate=N/A speed=19.2x    frame= 2310 fps=448 q=-0.0 size=N/A time=00:01:36.34 bitrate=N/A speed=18.7x    frame= 2497 fps=440 q=-0.0 size=N/A time=00:01:44.14 bitrate=N/A speed=18.3x    frame= 2679 fps=433 q=-0.0 size=N/A time=00:01:51.73 bitrate=N/A speed=18.1x    frame= 2866 fps=427 q=-0.0 size=N/A time=00:01:59.53 bitrate=N/A speed=17.8x    frame= 3004 fps=416 q=-0.0 size=N/A time=00:02:05.29 bitrate=N/A speed=17.4x    frame= 3198 fps=413 q=-0.0 size=N/A time=00:02:13.38 bitrate=N/A speed=17.2x    frame= 3352 fps=407 q=-0.0 size=N/A time=00:02:19.80 bitrate=N/A speed=  17x    frame= 3556 fps=406 q=-0.0 size=N/A time=00:02:28.31 bitrate=N/A speed=16.9x    frame= 3735 fps=402 q=-0.0 size=N/A time=00:02:35.78 bitrate=N/A speed=16.8x    frame= 3904 fps=398 q=-0.0 size=N/A time=00:02:42.82 bitrate=N/A speed=16.6x    frame= 4087 fps=396 q=-0.0 size=N/A time=00:02:50.46 bitrate=N/A speed=16.5x    frame= 4313 fps=398 q=-0.0 size=N/A time=00:02:59.88 bitrate=N/A speed=16.6x    frame= 4572 fps=403 q=-0.0 size=N/A time=00:03:10.69 bitrate=N/A speed=16.8x    frame= 4826 fps=407 q=-0.0 size=N/A time=00:03:21.28 bitrate=N/A speed=  17x    frame= 5063 fps=409 q=-0.0 size=N/A time=00:03:31.16 bitrate=N/A speed=17.1x    frame= 5326 fps=413 q=-0.0 size=N/A time=00:03:42.13 bitrate=N/A speed=17.2x    frame= 5582 fps=416 q=-0.0 size=N/A time=00:03:52.81 bitrate=N/A speed=17.4x    frame= 5835 fps=419 q=-0.0 size=N/A time=00:04:03.36 bitrate=N/A speed=17.5x    frame= 6074 fps=421 q=-0.0 size=N/A time=00:04:13.33 bitrate=N/A speed=17.6x    frame= 6326 fps=423 q=-0.0 size=N/A time=00:04:23.84 bitrate=N/A speed=17.6x    frame= 6595 fps=426 q=-0.0 size=N/A time=00:04:35.06 bitrate=N/A speed=17.8x    frame= 6858 fps=429 q=-0.0 size=N/A time=00:04:46.03 bitrate=N/A speed=17.9x    frame= 7118 fps=431 q=-0.0 size=N/A time=00:04:56.87 bitrate=N/A speed=  18x    frame= 7348 fps=432 q=-0.0 size=N/A time=00:05:06.47 bitrate=N/A speed=  18x    frame= 7574 fps=432 q=-0.0 size=N/A time=00:05:15.89 bitrate=N/A speed=  18x    frame= 7828 fps=434 q=-0.0 size=N/A time=00:05:26.49 bitrate=N/A speed=18.1x    frame= 8072 fps=435 q=-0.0 size=N/A time=00:05:36.66 bitrate=N/A speed=18.1x    frame= 8321 fps=436 q=-0.0 size=N/A time=00:05:47.05 bitrate=N/A speed=18.2x    frame= 8552 fps=436 q=-0.0 size=N/A time=00:05:56.68 bitrate=N/A speed=18.2x    frame= 8797 fps=437 q=-0.0 size=N/A time=00:06:06.90 bitrate=N/A speed=18.2x    frame= 9019 fps=437 q=-0.0 size=N/A time=00:06:16.16 bitrate=N/A speed=18.2x    frame= 9272 fps=438 q=-0.0 size=N/A time=00:06:26.71 bitrate=N/A speed=18.3x    frame= 9534 fps=440 q=-0.0 size=N/A time=00:06:37.64 bitrate=N/A speed=18.4x    frame= 9753 fps=440 q=-0.0 size=N/A time=00:06:46.78 bitrate=N/A speed=18.4x    frame= 9971 fps=439 q=-0.0 size=N/A time=00:06:55.87 bitrate=N/A speed=18.3x    frame=10180 fps=439 q=-0.0 size=N/A time=00:07:04.59 bitrate=N/A speed=18.3x    frame=10413 fps=439 q=-0.0 size=N/A time=00:07:14.30 bitrate=N/A speed=18.3x    frame=10689 fps=441 q=-0.0 size=N/A time=00:07:25.82 bitrate=N/A speed=18.4x    frame=10962 fps=443 q=-0.0 size=N/A time=00:07:37.20 bitrate=N/A speed=18.5x    frame=11235 fps=445 q=-0.0 size=N/A time=00:07:48.59 bitrate=N/A speed=18.5x    frame=11488 fps=445 q=-0.0 size=N/A time=00:07:59.14 bitrate=N/A speed=18.6x    frame=11739 fps=446 q=-0.0 size=N/A time=00:08:09.61 bitrate=N/A speed=18.6x    frame=11986 fps=447 q=-0.0 size=N/A time=00:08:19.91 bitrate=N/A speed=18.6x    frame=12244 fps=448 q=-0.0 size=N/A time=00:08:30.67 bitrate=N/A speed=18.7x    frame=12513 fps=450 q=-0.0 size=N/A time=00:08:41.89 bitrate=N/A speed=18.7x    frame=12790 fps=451 q=-0.0 size=N/A time=00:08:53.44 bitrate=N/A speed=18.8x    frame=13051 fps=452 q=-0.0 size=N/A time=00:09:04.33 bitrate=N/A speed=18.8x    frame=13321 fps=453 q=-0.0 size=N/A time=00:09:15.59 bitrate=N/A speed=18.9x    frame=13563 fps=453 q=-0.0 size=N/A time=00:09:25.69 bitrate=N/A speed=18.9x    frame=13822 fps=454 q=-0.0 size=N/A time=00:09:36.49 bitrate=N/A speed=18.9x    frame=14089 fps=455 q=-0.0 size=N/A time=00:09:47.62 bitrate=N/A speed=  19x    frame=14361 fps=457 q=-0.0 size=N/A time=00:09:58.97 bitrate=N/A speed=  19x    frame=14630 fps=458 q=-0.0 size=N/A time=00:10:10.19 bitrate=N/A speed=19.1x    frame=14900 fps=459 q=-0.0 size=N/A time=00:10:21.45 bitrate=N/A speed=19.1x    frame=15165 fps=459 q=-0.0 size=N/A time=00:10:32.50 bitrate=N/A speed=19.2x    frame=15407 fps=460 q=-0.0 size=N/A time=00:10:42.60 bitrate=N/A speed=19.2x    frame=15677 fps=461 q=-0.0 size=N/A time=00:10:53.86 bitrate=N/A speed=19.2x    frame=15912 fps=461 q=-0.0 size=N/A time=00:11:03.66 bitrate=N/A speed=19.2x    frame=16157 fps=461 q=-0.0 size=N/A time=00:11:13.88 bitrate=N/A speed=19.2x    frame=16343 fps=459 q=-0.0 size=N/A time=00:11:21.63 bitrate=N/A speed=19.2x    frame=16551 fps=458 q=-0.0 size=N/A time=00:11:30.31 bitrate=N/A speed=19.1x    frame=16783 fps=458 q=-0.0 size=N/A time=00:11:39.99 bitrate=N/A speed=19.1x    frame=17003 fps=458 q=-0.0 size=N/A time=00:11:49.16 bitrate=N/A speed=19.1x    frame=17197 fps=457 q=-0.0 size=N/A time=00:11:57.25 bitrate=N/A speed=19.1x    frame=17445 fps=457 q=-0.0 size=N/A time=00:12:07.60 bitrate=N/A speed=19.1x    frame=17679 fps=457 q=-0.0 size=N/A time=00:12:17.36 bitrate=N/A speed=19.1x    frame=17914 fps=457 q=-0.0 size=N/A time=00:12:27.16 bitrate=N/A speed=19.1x    frame=18173 fps=458 q=-0.0 size=N/A time=00:12:37.96 bitrate=N/A speed=19.1x    frame=18413 fps=458 q=-0.0 size=N/A time=00:12:47.97 bitrate=N/A speed=19.1x    frame=18655 fps=458 q=-0.0 size=N/A time=00:12:58.06 bitrate=N/A speed=19.1x    frame=18913 fps=458 q=-0.0 size=N/A time=00:13:08.82 bitrate=N/A speed=19.1x    frame=19156 fps=459 q=-0.0 size=N/A time=00:13:18.96 bitrate=N/A speed=19.1x    frame=19345 fps=458 q=-0.0 size=N/A time=00:13:26.84 bitrate=N/A speed=19.1x    frame=19513 fps=456 q=-0.0 size=N/A time=00:13:33.85 bitrate=N/A speed=  19x    frame=19701 fps=455 q=-0.0 size=N/A time=00:13:41.69 bitrate=N/A speed=  19x    frame=19947 fps=455 q=-0.0 size=N/A time=00:13:51.95 bitrate=N/A speed=  19x    frame=20198 fps=455 q=-0.0 size=N/A time=00:14:02.42 bitrate=N/A speed=  19x    frame=20458 fps=456 q=-0.0 size=N/A time=00:14:13.26 bitrate=N/A speed=  19x    frame=20658 fps=455 q=-0.0 size=N/A time=00:14:21.61 bitrate=N/A speed=  19x    frame=20798 fps=453 q=-0.0 size=N/A time=00:14:27.44 bitrate=N/A speed=18.9x    frame=21054 fps=454 q=-0.0 size=N/A time=00:14:38.12 bitrate=N/A speed=18.9x    frame=21323 fps=454 q=-0.0 size=N/A time=00:14:49.34 bitrate=N/A speed=  19x    frame=21544 fps=454 q=-0.0 size=N/A time=00:14:58.56 bitrate=N/A speed=18.9x    frame=21769 fps=454 q=-0.0 size=N/A time=00:15:07.94 bitrate=N/A speed=18.9x    frame=21976 fps=453 q=-0.0 size=N/A time=00:15:16.58 bitrate=N/A speed=18.9x    frame=22143 fps=452 q=-0.0 size=N/A time=00:15:23.54 bitrate=N/A speed=18.9x    frame=22289 fps=450 q=-0.0 size=N/A time=00:15:29.63 bitrate=N/A speed=18.8x    frame=22477 fps=449 q=-0.0 size=N/A time=00:15:37.47 bitrate=N/A speed=18.7x    frame=22695 fps=449 q=-0.0 size=N/A time=00:15:46.57 bitrate=N/A speed=18.7x    frame=22881 fps=448 q=-0.0 size=N/A time=00:15:54.32 bitrate=N/A speed=18.7x    frame=23046 fps=447 q=-0.0 size=N/A time=00:16:01.21 bitrate=N/A speed=18.6x    frame=23196 fps=445 q=-0.0 size=N/A time=00:16:07.46 bitrate=N/A speed=18.6x    frame=23371 fps=444 q=-0.0 size=N/A time=00:16:14.76 bitrate=N/A speed=18.5x    frame=23545 fps=443 q=-0.0 size=N/A time=00:16:22.02 bitrate=N/A speed=18.5x    frame=23723 fps=442 q=-0.0 size=N/A time=00:16:29.44 bitrate=N/A speed=18.4x    frame=23908 fps=442 q=-0.0 size=N/A time=00:16:37.16 bitrate=N/A speed=18.4x    frame=24115 fps=441 q=-0.0 size=N/A time=00:16:45.79 bitrate=N/A speed=18.4x    frame=24294 fps=440 q=-0.0 size=N/A time=00:16:53.26 bitrate=N/A speed=18.4x    frame=24504 fps=440 q=-0.0 size=N/A time=00:17:02.02 bitrate=N/A speed=18.3x    frame=24691 fps=439 q=-0.0 size=N/A time=00:17:09.82 bitrate=N/A speed=18.3x    frame=24916 fps=439 q=-0.0 size=N/A time=00:17:19.20 bitrate=N/A speed=18.3x    frame=25139 fps=439 q=-0.0 size=N/A time=00:17:28.50 bitrate=N/A speed=18.3x    frame=25324 fps=438 q=-0.0 size=N/A time=00:17:36.22 bitrate=N/A speed=18.3x    frame=25525 fps=438 q=-0.0 size=N/A time=00:17:44.60 bitrate=N/A speed=18.3x    frame=25723 fps=437 q=-0.0 size=N/A time=00:17:52.86 bitrate=N/A speed=18.2x    frame=25909 fps=437 q=-0.0 size=N/A time=00:18:00.62 bitrate=N/A speed=18.2x    frame=26148 fps=437 q=-0.0 size=N/A time=00:18:10.58 bitrate=N/A speed=18.2x    frame=26325 fps=436 q=-0.0 size=N/A time=00:18:17.97 bitrate=N/A speed=18.2x    frame=26517 fps=436 q=-0.0 size=N/A time=00:18:25.97 bitrate=N/A speed=18.2x    frame=26722 fps=435 q=-0.0 size=N/A time=00:18:34.53 bitrate=N/A speed=18.2x    frame=26874 fps=434 q=-0.0 size=N/A time=00:18:40.86 bitrate=N/A speed=18.1x    frame=27064 fps=434 q=-0.0 size=N/A time=00:18:48.79 bitrate=N/A speed=18.1x    frame=27238 fps=433 q=-0.0 size=N/A time=00:18:56.05 bitrate=N/A speed=18.1x    frame=27371 fps=432 q=-0.0 size=N/A time=00:19:01.59 bitrate=N/A speed=  18x    frame=27563 fps=431 q=-0.0 size=N/A time=00:19:09.60 bitrate=N/A speed=  18x    frame=27788 fps=431 q=-0.0 size=N/A time=00:19:18.99 bitrate=N/A speed=  18x    frame=27958 fps=430 q=-0.0 size=N/A time=00:19:26.08 bitrate=N/A speed=17.9x    frame=28175 fps=430 q=-0.0 size=N/A time=00:19:35.13 bitrate=N/A speed=17.9x    frame=28410 fps=430 q=-0.0 size=N/A time=00:19:44.93 bitrate=N/A speed=  18x    frame=28672 fps=431 q=-0.0 size=N/A time=00:19:55.86 bitrate=N/A speed=  18x    frame=28942 fps=432 q=-0.0 size=N/A time=00:20:07.12 bitrate=N/A speed=  18x    frame=29209 fps=432 q=-0.0 size=N/A time=00:20:18.25 bitrate=N/A speed=  18x    frame=29475 fps=433 q=-0.0 size=N/A time=00:20:29.35 bitrate=N/A speed=18.1x    frame=29739 fps=433 q=-0.0 size=N/A time=00:20:40.36 bitrate=N/A speed=18.1x    frame=29980 fps=434 q=-0.0 size=N/A time=00:20:50.41 bitrate=N/A speed=18.1x    frame=30242 fps=434 q=-0.0 size=N/A time=00:21:01.34 bitrate=N/A speed=18.1x    frame=30512 fps=435 q=-0.0 size=N/A time=00:21:12.60 bitrate=N/A speed=18.1x    frame=30692 fps=434 q=-0.0 size=N/A time=00:21:20.11 bitrate=N/A speed=18.1x    frame=30958 fps=435 q=-0.0 size=N/A time=00:21:31.20 bitrate=N/A speed=18.1x    frame=31208 fps=435 q=-0.0 size=N/A time=00:21:41.63 bitrate=N/A speed=18.2x    frame=31445 fps=435 q=-0.0 size=N/A time=00:21:51.51 bitrate=N/A speed=18.2x    frame=31656 fps=435 q=-0.0 size=N/A time=00:22:00.31 bitrate=N/A speed=18.2x    frame=31861 fps=435 q=-0.0 size=N/A time=00:22:08.86 bitrate=N/A speed=18.1x    frame=32129 fps=436 q=-0.0 size=N/A time=00:22:20.04 bitrate=N/A speed=18.2x    frame=32382 fps=436 q=-0.0 size=N/A time=00:22:30.59 bitrate=N/A speed=18.2x    frame=32618 fps=436 q=-0.0 size=N/A time=00:22:40.44 bitrate=N/A speed=18.2x    frame=32850 fps=436 q=-0.0 size=N/A time=00:22:50.16 bitrate=N/A speed=18.2x    frame=33055 fps=436 q=-0.0 size=N/A time=00:22:58.66 bitrate=N/A speed=18.2x    frame=33288 fps=436 q=-0.0 size=N/A time=00:23:08.38 bitrate=N/A speed=18.2x    frame=33509 fps=436 q=-0.0 size=N/A time=00:23:17.60 bitrate=N/A speed=18.2x    frame=33734 fps=436 q=-0.0 size=N/A time=00:23:26.98 bitrate=N/A speed=18.2x    frame=33974 fps=436 q=-0.0 size=N/A time=00:23:36.99 bitrate=N/A speed=18.2x    frame=34181 fps=436 q=-0.0 size=N/A time=00:23:45.63 bitrate=N/A speed=18.2x    [Parsed_psnr_10 @ 000001feaab6b140] PSNR y:47.264114 u:50.698623 v:50.888147 average:48.154690 min:36.391490 max:inf
[out#0/null @ 000001fea8505380] video:14697KiB audio:267652KiB subtitle:0KiB other streams:0KiB global headers:0KiB muxing overhead: unknown
frame=34203 fps=436 q=-0.0 Lsize=N/A time=00:23:46.55 bitrate=N/A speed=18.2x    
